<svg width="267" height="384" viewBox="0 0 267 384" fill="none" xmlns="http://www.w3.org/2000/svg">
<g clip-path="url(#clip0)">
<path d="M0 40C0 21.1438 0 11.7157 5.85786 5.85786C11.7157 0 21.1438 0 40 0L226.783 0C245.64 0 255.068 0 260.926 5.85786C266.783 11.7157 266.783 21.1438 266.783 40V344.02C266.783 362.877 266.783 372.305 260.926 378.163C255.068 384.02 245.64 384.02 226.783 384.02H40C21.1438 384.02 11.7157 384.02 5.85786 378.163C0 372.305 0 362.877 0 344.02L0 40Z" fill="#6969B3"/>
</g>
<defs>
<clipPath id="clip0">
<rect width="267" height="384" fill="white"/>
</clipPath>
</defs>
</svg>
